<?xml version="1.0" encoding="UTF-8" standalone="no"?>
<!DOCTYPE svg PUBLIC "-//W3C//DTD SVG 1.1//EN"
 "http://www.w3.org/Graphics/SVG/1.1/DTD/svg11.dtd">
<!-- Generated by graphviz version 2.40.1 (20161225.0304)
 -->
<!-- Title: dependencies Pages: 1 -->
<svg width="564pt" height="211pt"
 viewBox="0.00 0.00 564.00 211.00" xmlns="http://www.w3.org/2000/svg" xmlns:xlink="http://www.w3.org/1999/xlink">
<g id="graph0" class="graph" transform="scale(1 1) rotate(0) translate(4 207)">
<title>dependencies</title>
<polygon fill="#ffffff" stroke="transparent" points="-4,4 -4,-207 560,-207 560,4 -4,4"/>
<text text-anchor="start" x="257.0091" y="-42.4" font-family="sans-serif" font-weight="bold" font-size="14.00" fill="#000000">Legend</text>
<polygon fill="#ffffb3" stroke="transparent" points="44,-10 44,-30 64,-30 64,-10 44,-10"/>
<text text-anchor="start" x="67.629" y="-15.4" font-family="sans-serif" font-size="14.00" fill="#000000"> &#160;Declarations</text>
<polygon fill="#8dd3c7" stroke="transparent" points="157,-10 157,-30 177,-30 177,-10 157,-10"/>
<text text-anchor="start" x="180.7251" y="-15.4" font-family="sans-serif" font-size="14.00" fill="#000000"> &#160;Module</text>
<polygon fill="#80b1d3" stroke="transparent" points="243,-10 243,-30 263,-30 263,-10 243,-10"/>
<text text-anchor="start" x="266.7812" y="-15.4" font-family="sans-serif" font-size="14.00" fill="#000000"> &#160;Bootstrap</text>
<polygon fill="#fdb462" stroke="transparent" points="340,-10 340,-30 360,-30 360,-10 340,-10"/>
<text text-anchor="start" x="363.6732" y="-15.4" font-family="sans-serif" font-size="14.00" fill="#000000"> &#160;Providers</text>
<polygon fill="#fb8072" stroke="transparent" points="436,-10 436,-30 456,-30 456,-10 436,-10"/>
<text text-anchor="start" x="459.7258" y="-15.4" font-family="sans-serif" font-size="14.00" fill="#000000"> &#160;Exports</text>
<g id="clust1" class="cluster">
<title>cluster_ExpensesModule</title>
<polygon fill="none" stroke="#000000" stroke-dasharray="1,5" points="8,-70 8,-195 548,-195 548,-70 8,-70"/>
</g>
<g id="clust2" class="cluster">
<title>cluster_ExpensesModule_declarations</title>
<polygon fill="none" stroke="#000000" points="198,-78 198,-130 540,-130 540,-78 198,-78"/>
</g>
<g id="clust5" class="cluster">
<title>cluster_ExpensesModule_imports</title>
<polygon fill="none" stroke="#000000" points="16,-78 16,-130 190,-130 190,-78 16,-78"/>
</g>
<!-- ListExpensesComponent -->
<g id="node1" class="node">
<title>ListExpensesComponent</title>
<polygon fill="#ffffb3" stroke="#000000" points="531.9818,-122 376.0182,-122 376.0182,-86 531.9818,-86 531.9818,-122"/>
<text text-anchor="middle" x="454" y="-99.8" font-family="Times,serif" font-size="14.00" fill="#000000">ListExpensesComponent</text>
</g>
<!-- ExpensesModule -->
<g id="node3" class="node">
<title>ExpensesModule</title>
<polygon fill="#8dd3c7" stroke="#000000" points="338.4216,-187 335.4216,-191 314.4216,-191 311.4216,-187 225.5784,-187 225.5784,-151 338.4216,-151 338.4216,-187"/>
<text text-anchor="middle" x="282" y="-164.8" font-family="Times,serif" font-size="14.00" fill="#000000">ExpensesModule</text>
</g>
<!-- ListExpensesComponent&#45;&gt;ExpensesModule -->
<g id="edge1" class="edge">
<title>ListExpensesComponent&#45;&gt;ExpensesModule</title>
<path fill="none" stroke="#000000" d="M454,-122.1061C454,-141.3391 454,-169 454,-169 454,-169 348.3192,-169 348.3192,-169"/>
<polygon fill="#000000" stroke="#000000" points="348.3193,-165.5001 338.3192,-169 348.3192,-172.5001 348.3193,-165.5001"/>
</g>
<!-- AddExpenseComponent -->
<g id="node2" class="node">
<title>AddExpenseComponent</title>
<polygon fill="#ffffb3" stroke="#000000" points="358.3655,-122 205.6345,-122 205.6345,-86 358.3655,-86 358.3655,-122"/>
<text text-anchor="middle" x="282" y="-99.8" font-family="Times,serif" font-size="14.00" fill="#000000">AddExpenseComponent</text>
</g>
<!-- AddExpenseComponent&#45;&gt;ExpensesModule -->
<g id="edge2" class="edge">
<title>AddExpenseComponent&#45;&gt;ExpensesModule</title>
<path fill="none" stroke="#000000" d="M282,-122.1061C282,-122.1061 282,-140.991 282,-140.991"/>
<polygon fill="#000000" stroke="#000000" points="278.5001,-140.9909 282,-150.991 285.5001,-140.991 278.5001,-140.9909"/>
</g>
<!-- ExpensesRoutingModule -->
<g id="node4" class="node">
<title>ExpensesRoutingModule</title>
<polygon fill="#8dd3c7" stroke="#000000" points="181.5393,-122 178.5393,-126 157.5393,-126 154.5393,-122 24.4607,-122 24.4607,-86 181.5393,-86 181.5393,-122"/>
<text text-anchor="middle" x="103" y="-99.8" font-family="Times,serif" font-size="14.00" fill="#000000">ExpensesRoutingModule</text>
</g>
<!-- ExpensesRoutingModule&#45;&gt;ExpensesModule -->
<g id="edge3" class="edge">
<title>ExpensesRoutingModule&#45;&gt;ExpensesModule</title>
<path fill="none" stroke="#000000" d="M103,-122.1061C103,-141.3391 103,-169 103,-169 103,-169 215.3633,-169 215.3633,-169"/>
<polygon fill="#000000" stroke="#000000" points="215.3633,-172.5001 225.3633,-169 215.3632,-165.5001 215.3633,-172.5001"/>
</g>
</g>
</svg>
