<?xml version="1.0" encoding="UTF-8" standalone="no"?>
<!DOCTYPE svg PUBLIC "-//W3C//DTD SVG 1.1//EN"
 "http://www.w3.org/Graphics/SVG/1.1/DTD/svg11.dtd">
<!-- Generated by graphviz version 2.40.1 (20161225.0304)
 -->
<!-- Title: dependencies Pages: 1 -->
<svg width="680pt" height="211pt"
 viewBox="0.00 0.00 680.00 211.00" xmlns="http://www.w3.org/2000/svg" xmlns:xlink="http://www.w3.org/1999/xlink">
<g id="graph0" class="graph" transform="scale(1 1) rotate(0) translate(4 207)">
<title>dependencies</title>
<polygon fill="#ffffff" stroke="transparent" points="-4,4 -4,-207 676,-207 676,4 -4,4"/>
<text text-anchor="start" x="315.0091" y="-42.4" font-family="sans-serif" font-weight="bold" font-size="14.00" fill="#000000">Legend</text>
<polygon fill="#ffffb3" stroke="transparent" points="102,-10 102,-30 122,-30 122,-10 102,-10"/>
<text text-anchor="start" x="125.629" y="-15.4" font-family="sans-serif" font-size="14.00" fill="#000000"> &#160;Declarations</text>
<polygon fill="#8dd3c7" stroke="transparent" points="215,-10 215,-30 235,-30 235,-10 215,-10"/>
<text text-anchor="start" x="238.7251" y="-15.4" font-family="sans-serif" font-size="14.00" fill="#000000"> &#160;Module</text>
<polygon fill="#80b1d3" stroke="transparent" points="301,-10 301,-30 321,-30 321,-10 301,-10"/>
<text text-anchor="start" x="324.7812" y="-15.4" font-family="sans-serif" font-size="14.00" fill="#000000"> &#160;Bootstrap</text>
<polygon fill="#fdb462" stroke="transparent" points="398,-10 398,-30 418,-30 418,-10 398,-10"/>
<text text-anchor="start" x="421.6732" y="-15.4" font-family="sans-serif" font-size="14.00" fill="#000000"> &#160;Providers</text>
<polygon fill="#fb8072" stroke="transparent" points="494,-10 494,-30 514,-30 514,-10 494,-10"/>
<text text-anchor="start" x="517.7258" y="-15.4" font-family="sans-serif" font-size="14.00" fill="#000000"> &#160;Exports</text>
<g id="clust1" class="cluster">
<title>cluster_ExpensesModule</title>
<polygon fill="none" stroke="#000000" stroke-dasharray="1,5" points="8,-70 8,-195 664,-195 664,-70 8,-70"/>
</g>
<g id="clust2" class="cluster">
<title>cluster_ExpensesModule_declarations</title>
<polygon fill="none" stroke="#000000" points="314,-78 314,-130 656,-130 656,-78 314,-78"/>
</g>
<g id="clust5" class="cluster">
<title>cluster_ExpensesModule_imports</title>
<polygon fill="none" stroke="#000000" points="16,-78 16,-130 306,-130 306,-78 16,-78"/>
</g>
<!-- ListExpensesComponent -->
<g id="node1" class="node">
<title>ListExpensesComponent</title>
<polygon fill="#ffffb3" stroke="#000000" points="647.9818,-122 492.0182,-122 492.0182,-86 647.9818,-86 647.9818,-122"/>
<text text-anchor="middle" x="570" y="-99.8" font-family="Times,serif" font-size="14.00" fill="#000000">ListExpensesComponent</text>
</g>
<!-- ExpensesModule -->
<g id="node3" class="node">
<title>ExpensesModule</title>
<polygon fill="#8dd3c7" stroke="#000000" points="364.4216,-187 361.4216,-191 340.4216,-191 337.4216,-187 251.5784,-187 251.5784,-151 364.4216,-151 364.4216,-187"/>
<text text-anchor="middle" x="308" y="-164.8" font-family="Times,serif" font-size="14.00" fill="#000000">ExpensesModule</text>
</g>
<!-- ListExpensesComponent&#45;&gt;ExpensesModule -->
<g id="edge1" class="edge">
<title>ListExpensesComponent&#45;&gt;ExpensesModule</title>
<path fill="none" stroke="#000000" d="M570,-122.1061C570,-141.3391 570,-169 570,-169 570,-169 374.5275,-169 374.5275,-169"/>
<polygon fill="#000000" stroke="#000000" points="374.5276,-165.5001 364.5275,-169 374.5275,-172.5001 374.5276,-165.5001"/>
</g>
<!-- AddExpenseComponent -->
<g id="node2" class="node">
<title>AddExpenseComponent</title>
<polygon fill="#ffffb3" stroke="#000000" points="474.3655,-122 321.6345,-122 321.6345,-86 474.3655,-86 474.3655,-122"/>
<text text-anchor="middle" x="398" y="-99.8" font-family="Times,serif" font-size="14.00" fill="#000000">AddExpenseComponent</text>
</g>
<!-- AddExpenseComponent&#45;&gt;ExpensesModule -->
<g id="edge2" class="edge">
<title>AddExpenseComponent&#45;&gt;ExpensesModule</title>
<path fill="none" stroke="#000000" d="M342.8889,-122.1061C342.8889,-122.1061 342.8889,-140.991 342.8889,-140.991"/>
<polygon fill="#000000" stroke="#000000" points="339.3889,-140.9909 342.8889,-150.991 346.3889,-140.991 339.3889,-140.9909"/>
</g>
<!-- ExpensesRoutingModule -->
<g id="node4" class="node">
<title>ExpensesRoutingModule</title>
<polygon fill="#8dd3c7" stroke="#000000" points="297.5393,-122 294.5393,-126 273.5393,-126 270.5393,-122 140.4607,-122 140.4607,-86 297.5393,-86 297.5393,-122"/>
<text text-anchor="middle" x="219" y="-99.8" font-family="Times,serif" font-size="14.00" fill="#000000">ExpensesRoutingModule</text>
</g>
<!-- ExpensesRoutingModule&#45;&gt;ExpensesModule -->
<g id="edge3" class="edge">
<title>ExpensesRoutingModule&#45;&gt;ExpensesModule</title>
<path fill="none" stroke="#000000" d="M274.7795,-122.1061C274.7795,-122.1061 274.7795,-140.991 274.7795,-140.991"/>
<polygon fill="#000000" stroke="#000000" points="271.2795,-140.9909 274.7795,-150.991 278.2795,-140.991 271.2795,-140.9909"/>
</g>
<!-- SharedModule -->
<g id="node5" class="node">
<title>SharedModule</title>
<polygon fill="#8dd3c7" stroke="#000000" points="122.4231,-122 119.4231,-126 98.4231,-126 95.4231,-122 23.5769,-122 23.5769,-86 122.4231,-86 122.4231,-122"/>
<text text-anchor="middle" x="73" y="-99.8" font-family="Times,serif" font-size="14.00" fill="#000000">SharedModule</text>
</g>
<!-- SharedModule&#45;&gt;ExpensesModule -->
<g id="edge4" class="edge">
<title>SharedModule&#45;&gt;ExpensesModule</title>
<path fill="none" stroke="#000000" d="M73,-122.1061C73,-141.3391 73,-169 73,-169 73,-169 241.7116,-169 241.7116,-169"/>
<polygon fill="#000000" stroke="#000000" points="241.7117,-172.5001 251.7116,-169 241.7116,-165.5001 241.7117,-172.5001"/>
</g>
</g>
</svg>
