<?xml version="1.0" encoding="UTF-8" standalone="no"?>
<!DOCTYPE svg PUBLIC "-//W3C//DTD SVG 1.1//EN"
 "http://www.w3.org/Graphics/SVG/1.1/DTD/svg11.dtd">
<!-- Generated by graphviz version 2.40.1 (20161225.0304)
 -->
<!-- Title: dependencies Pages: 1 -->
<svg width="2045pt" height="360pt"
 viewBox="0.00 0.00 2045.00 360.00" xmlns="http://www.w3.org/2000/svg" xmlns:xlink="http://www.w3.org/1999/xlink">
<g id="graph0" class="graph" transform="scale(1 1) rotate(0) translate(4 356)">
<title>dependencies</title>
<polygon fill="#ffffff" stroke="transparent" points="-4,4 -4,-356 2041,-356 2041,4 -4,4"/>
<text text-anchor="start" x="997.5091" y="-42.4" font-family="sans-serif" font-weight="bold" font-size="14.00" fill="#000000">Legend</text>
<polygon fill="#ffffb3" stroke="transparent" points="784.5,-10 784.5,-30 804.5,-30 804.5,-10 784.5,-10"/>
<text text-anchor="start" x="808.129" y="-15.4" font-family="sans-serif" font-size="14.00" fill="#000000"> &#160;Declarations</text>
<polygon fill="#8dd3c7" stroke="transparent" points="897.5,-10 897.5,-30 917.5,-30 917.5,-10 897.5,-10"/>
<text text-anchor="start" x="921.2251" y="-15.4" font-family="sans-serif" font-size="14.00" fill="#000000"> &#160;Module</text>
<polygon fill="#80b1d3" stroke="transparent" points="983.5,-10 983.5,-30 1003.5,-30 1003.5,-10 983.5,-10"/>
<text text-anchor="start" x="1007.2812" y="-15.4" font-family="sans-serif" font-size="14.00" fill="#000000"> &#160;Bootstrap</text>
<polygon fill="#fdb462" stroke="transparent" points="1080.5,-10 1080.5,-30 1100.5,-30 1100.5,-10 1080.5,-10"/>
<text text-anchor="start" x="1104.1732" y="-15.4" font-family="sans-serif" font-size="14.00" fill="#000000"> &#160;Providers</text>
<polygon fill="#fb8072" stroke="transparent" points="1176.5,-10 1176.5,-30 1196.5,-30 1196.5,-10 1176.5,-10"/>
<text text-anchor="start" x="1200.2258" y="-15.4" font-family="sans-serif" font-size="14.00" fill="#000000"> &#160;Exports</text>
<g id="clust1" class="cluster">
<title>cluster_AppModule</title>
<polygon fill="none" stroke="#000000" stroke-dasharray="1,5" points="581,-146 581,-344 1159,-344 1159,-146 581,-146"/>
</g>
<g id="clust2" class="cluster">
<title>cluster_AppModule_declarations</title>
<polygon fill="none" stroke="#000000" points="846,-154 846,-206 1151,-206 1151,-154 846,-154"/>
</g>
<g id="clust5" class="cluster">
<title>cluster_AppModule_imports</title>
<polygon fill="none" stroke="#000000" points="589,-154 589,-206 838,-206 838,-154 589,-154"/>
</g>
<g id="clust7" class="cluster">
<title>cluster_AppModule_bootstrap</title>
<polygon fill="none" stroke="#000000" points="789,-284 789,-336 913,-336 913,-284 789,-284"/>
</g>
<g id="clust15" class="cluster">
<title>cluster_CoreModule</title>
<polygon fill="none" stroke="#000000" stroke-dasharray="1,5" points="8,-70 8,-138 1309,-138 1309,-70 8,-70"/>
</g>
<g id="clust16" class="cluster">
<title>cluster_CoreModule_declarations</title>
<polygon fill="none" stroke="#000000" points="995,-78 995,-130 1301,-130 1301,-78 995,-78"/>
</g>
<g id="clust20" class="cluster">
<title>cluster_CoreModule_exports</title>
<polygon fill="none" stroke="#000000" points="673,-78 673,-130 987,-130 987,-78 673,-78"/>
</g>
<g id="clust22" class="cluster">
<title>cluster_CoreModule_providers</title>
<polygon fill="none" stroke="#000000" points="16,-78 16,-130 665,-130 665,-78 16,-78"/>
</g>
<g id="clust23" class="cluster">
<title>cluster_ExpensesModule</title>
<polygon fill="none" stroke="#000000" stroke-dasharray="1,5" points="1317,-70 1317,-206 1857,-206 1857,-70 1317,-70"/>
</g>
<g id="clust24" class="cluster">
<title>cluster_ExpensesModule_declarations</title>
<polygon fill="none" stroke="#000000" points="1507,-78 1507,-130 1849,-130 1849,-78 1507,-78"/>
</g>
<g id="clust27" class="cluster">
<title>cluster_ExpensesModule_imports</title>
<polygon fill="none" stroke="#000000" points="1325,-78 1325,-130 1499,-130 1499,-78 1325,-78"/>
</g>
<g id="clust37" class="cluster">
<title>cluster_SharedModule</title>
<polygon fill="none" stroke="#000000" stroke-dasharray="1,5" points="1865,-70 1865,-206 2029,-206 2029,-70 1865,-70"/>
</g>
<g id="clust42" class="cluster">
<title>cluster_SharedModule_providers</title>
<polygon fill="none" stroke="#000000" points="1873,-78 1873,-130 2021,-130 2021,-78 1873,-78"/>
</g>
<!-- AppComponent -->
<g id="node1" class="node">
<title>AppComponent</title>
<polygon fill="#ffffb3" stroke="#000000" points="1142.9399,-198 1037.0601,-198 1037.0601,-162 1142.9399,-162 1142.9399,-198"/>
<text text-anchor="middle" x="1090" y="-175.8" font-family="Times,serif" font-size="14.00" fill="#000000">AppComponent</text>
</g>
<!-- AppModule -->
<g id="node3" class="node">
<title>AppModule</title>
<polygon fill="#8dd3c7" stroke="#000000" points="892.6571,-263 889.6571,-267 868.6571,-267 865.6571,-263 809.3429,-263 809.3429,-227 892.6571,-227 892.6571,-263"/>
<text text-anchor="middle" x="851" y="-240.8" font-family="Times,serif" font-size="14.00" fill="#000000">AppModule</text>
</g>
<!-- AppComponent&#45;&gt;AppModule -->
<g id="edge1" class="edge">
<title>AppComponent&#45;&gt;AppModule</title>
<path fill="none" stroke="#000000" d="M1090,-198.1061C1090,-217.3391 1090,-245 1090,-245 1090,-245 902.9041,-245 902.9041,-245"/>
<polygon fill="#000000" stroke="#000000" points="902.9041,-241.5001 892.9041,-245 902.9041,-248.5001 902.9041,-241.5001"/>
</g>
<!-- PageNotFoundComponent -->
<g id="node2" class="node">
<title>PageNotFoundComponent</title>
<polygon fill="#ffffb3" stroke="#000000" points="1019.8243,-198 854.1757,-198 854.1757,-162 1019.8243,-162 1019.8243,-198"/>
<text text-anchor="middle" x="937" y="-175.8" font-family="Times,serif" font-size="14.00" fill="#000000">PageNotFoundComponent</text>
</g>
<!-- PageNotFoundComponent&#45;&gt;AppModule -->
<g id="edge2" class="edge">
<title>PageNotFoundComponent&#45;&gt;AppModule</title>
<path fill="none" stroke="#000000" d="M873.5831,-198.1061C873.5831,-198.1061 873.5831,-216.991 873.5831,-216.991"/>
<polygon fill="#000000" stroke="#000000" points="870.0832,-216.9909 873.5831,-226.991 877.0832,-216.991 870.0832,-216.9909"/>
</g>
<!-- AppComponent  -->
<g id="node6" class="node">
<title>AppComponent </title>
<polygon fill="#80b1d3" stroke="#000000" points="905.439,-328 796.561,-328 796.561,-292 905.439,-292 905.439,-328"/>
<text text-anchor="middle" x="851" y="-305.8" font-family="Times,serif" font-size="14.00" fill="#000000">AppComponent </text>
</g>
<!-- AppModule&#45;&gt;AppComponent  -->
<g id="edge5" class="edge">
<title>AppModule&#45;&gt;AppComponent </title>
<path fill="none" stroke="#000000" stroke-dasharray="1,5" d="M851,-263.1061C851,-263.1061 851,-281.991 851,-281.991"/>
<polygon fill="#000000" stroke="#000000" points="847.5001,-281.9909 851,-291.991 854.5001,-281.991 847.5001,-281.9909"/>
</g>
<!-- AppRoutingModule -->
<g id="node4" class="node">
<title>AppRoutingModule</title>
<polygon fill="#8dd3c7" stroke="#000000" points="830.2744,-198 827.2744,-202 806.2744,-202 803.2744,-198 701.7256,-198 701.7256,-162 830.2744,-162 830.2744,-198"/>
<text text-anchor="middle" x="766" y="-175.8" font-family="Times,serif" font-size="14.00" fill="#000000">AppRoutingModule</text>
</g>
<!-- AppRoutingModule&#45;&gt;AppModule -->
<g id="edge3" class="edge">
<title>AppRoutingModule&#45;&gt;AppModule</title>
<path fill="none" stroke="#000000" d="M819.7795,-198.1061C819.7795,-198.1061 819.7795,-216.991 819.7795,-216.991"/>
<polygon fill="#000000" stroke="#000000" points="816.2795,-216.9909 819.7795,-226.991 823.2795,-216.991 816.2795,-216.9909"/>
</g>
<!-- CoreModule -->
<g id="node5" class="node">
<title>CoreModule</title>
<polygon fill="#8dd3c7" stroke="#000000" points="683.2619,-198 680.2619,-202 659.2619,-202 656.2619,-198 596.7381,-198 596.7381,-162 683.2619,-162 683.2619,-198"/>
<text text-anchor="middle" x="640" y="-175.8" font-family="Times,serif" font-size="14.00" fill="#000000">CoreModule</text>
</g>
<!-- CoreModule&#45;&gt;AppModule -->
<g id="edge4" class="edge">
<title>CoreModule&#45;&gt;AppModule</title>
<path fill="none" stroke="#000000" d="M640,-198.1061C640,-217.3391 640,-245 640,-245 640,-245 799.3132,-245 799.3132,-245"/>
<polygon fill="#000000" stroke="#000000" points="799.3132,-248.5001 809.3132,-245 799.3132,-241.5001 799.3132,-248.5001"/>
</g>
<!-- BreadcrumbComponent  -->
<g id="node9" class="node">
<title>BreadcrumbComponent </title>
<polygon fill="#fb8072" stroke="#000000" points="979.0246,-122 824.9754,-122 824.9754,-86 979.0246,-86 979.0246,-122"/>
<text text-anchor="middle" x="902" y="-99.8" font-family="Times,serif" font-size="14.00" fill="#000000">BreadcrumbComponent </text>
</g>
<!-- CoreModule&#45;&gt;BreadcrumbComponent  -->
<g id="edge8" class="edge">
<title>CoreModule&#45;&gt;BreadcrumbComponent </title>
<path fill="none" stroke="#000000" stroke-dasharray="5,2" d="M675.3961,-161.8533C675.3961,-148.2605 675.3961,-132 675.3961,-132 675.3961,-132 842.3626,-132 842.3626,-132 842.3626,-132 842.3626,-131.0207 842.3626,-131.0207"/>
<polygon fill="#000000" stroke="#000000" points="845.8627,-132.2069 842.3626,-122.207 838.8627,-132.207 845.8627,-132.2069"/>
</g>
<!-- HeaderComponent  -->
<g id="node10" class="node">
<title>HeaderComponent </title>
<polygon fill="#fb8072" stroke="#000000" points="806.7436,-122 681.2564,-122 681.2564,-86 806.7436,-86 806.7436,-122"/>
<text text-anchor="middle" x="744" y="-99.8" font-family="Times,serif" font-size="14.00" fill="#000000">HeaderComponent </text>
</g>
<!-- CoreModule&#45;&gt;HeaderComponent  -->
<g id="edge9" class="edge">
<title>CoreModule&#45;&gt;HeaderComponent </title>
<path fill="none" stroke="#000000" stroke-dasharray="5,2" d="M683.3526,-180C688.7928,-180 692.4969,-180 692.4969,-180 692.4969,-180 692.4969,-132.0109 692.4969,-132.0109"/>
<polygon fill="#000000" stroke="#000000" points="695.9969,-132.0109 692.4969,-122.0109 688.9969,-132.011 695.9969,-132.0109"/>
</g>
<!-- BreadcrumbComponent -->
<g id="node7" class="node">
<title>BreadcrumbComponent</title>
<polygon fill="#ffffb3" stroke="#000000" points="1293.0253,-122 1142.9747,-122 1142.9747,-86 1293.0253,-86 1293.0253,-122"/>
<text text-anchor="middle" x="1218" y="-99.8" font-family="Times,serif" font-size="14.00" fill="#000000">BreadcrumbComponent</text>
</g>
<!-- BreadcrumbComponent&#45;&gt;CoreModule -->
<g id="edge6" class="edge">
<title>BreadcrumbComponent&#45;&gt;CoreModule</title>
<path fill="none" stroke="#000000" d="M1218,-122.1467C1218,-135.7395 1218,-152 1218,-152 1218,-152 669.414,-152 669.414,-152 669.414,-152 669.414,-152.9793 669.414,-152.9793"/>
<polygon fill="#000000" stroke="#000000" points="665.9141,-151.793 669.414,-161.793 672.9141,-151.7931 665.9141,-151.793"/>
</g>
<!-- HeaderComponent -->
<g id="node8" class="node">
<title>HeaderComponent</title>
<polygon fill="#ffffb3" stroke="#000000" points="1124.7437,-122 1003.2563,-122 1003.2563,-86 1124.7437,-86 1124.7437,-122"/>
<text text-anchor="middle" x="1064" y="-99.8" font-family="Times,serif" font-size="14.00" fill="#000000">HeaderComponent</text>
</g>
<!-- HeaderComponent&#45;&gt;CoreModule -->
<g id="edge7" class="edge">
<title>HeaderComponent&#45;&gt;CoreModule</title>
<path fill="none" stroke="#000000" d="M1011.3952,-122.1097C1011.3952,-131.897 1011.3952,-142 1011.3952,-142 1011.3952,-142 663.4318,-142 663.4318,-142 663.4318,-142 663.4318,-151.8903 663.4318,-151.8903"/>
<polygon fill="#000000" stroke="#000000" points="659.9319,-151.8903 663.4318,-161.8903 666.9319,-151.8904 659.9319,-151.8903"/>
</g>
<!-- SelectivePreloadingStrategy -->
<g id="node11" class="node">
<title>SelectivePreloadingStrategy</title>
<ellipse fill="#fdb462" stroke="#000000" cx="537" cy="-104" rx="120.3994" ry="18"/>
<text text-anchor="middle" x="537" y="-99.8" font-family="Times,serif" font-size="14.00" fill="#000000">SelectivePreloadingStrategy</text>
</g>
<!-- SelectivePreloadingStrategy&#45;&gt;CoreModule -->
<g id="edge10" class="edge">
<title>SelectivePreloadingStrategy&#45;&gt;CoreModule</title>
<path fill="none" stroke="#000000" d="M627.0344,-116.2107C627.0344,-116.2107 627.0344,-151.864 627.0344,-151.864"/>
<polygon fill="#000000" stroke="#000000" points="623.5345,-151.864 627.0344,-161.864 630.5345,-151.864 623.5345,-151.864"/>
</g>
<!-- LogService -->
<g id="node12" class="node">
<title>LogService</title>
<ellipse fill="#fdb462" stroke="#000000" cx="343" cy="-104" rx="55.5966" ry="18"/>
<text text-anchor="middle" x="343" y="-99.8" font-family="Times,serif" font-size="14.00" fill="#000000">LogService</text>
</g>
<!-- LogService&#45;&gt;CoreModule -->
<g id="edge11" class="edge">
<title>LogService&#45;&gt;CoreModule</title>
<path fill="none" stroke="#000000" d="M343,-122.308C343,-142.1455 343,-171 343,-171 343,-171 586.4956,-171 586.4956,-171"/>
<polygon fill="#000000" stroke="#000000" points="586.4956,-174.5001 596.4956,-171 586.4955,-167.5001 586.4956,-174.5001"/>
</g>
<!-- AuthGuard -->
<g id="node13" class="node">
<title>AuthGuard</title>
<ellipse fill="#fdb462" stroke="#000000" cx="215" cy="-104" rx="54.4566" ry="18"/>
<text text-anchor="middle" x="215" y="-99.8" font-family="Times,serif" font-size="14.00" fill="#000000">AuthGuard</text>
</g>
<!-- AuthGuard&#45;&gt;CoreModule -->
<g id="edge12" class="edge">
<title>AuthGuard&#45;&gt;CoreModule</title>
<path fill="none" stroke="#000000" d="M215,-122.0109C215,-144.4852 215,-180 215,-180 215,-180 586.5148,-180 586.5148,-180"/>
<polygon fill="#000000" stroke="#000000" points="586.5149,-183.5001 596.5148,-180 586.5148,-176.5001 586.5149,-183.5001"/>
</g>
<!-- AuthService -->
<g id="node14" class="node">
<title>AuthService</title>
<ellipse fill="#fdb462" stroke="#000000" cx="83" cy="-104" rx="59.1083" ry="18"/>
<text text-anchor="middle" x="83" y="-99.8" font-family="Times,serif" font-size="14.00" fill="#000000">AuthService</text>
</g>
<!-- AuthService&#45;&gt;CoreModule -->
<g id="edge13" class="edge">
<title>AuthService&#45;&gt;CoreModule</title>
<path fill="none" stroke="#000000" d="M83,-122.0263C83,-146.9773 83,-189 83,-189 83,-189 586.2931,-189 586.2931,-189"/>
<polygon fill="#000000" stroke="#000000" points="586.2932,-192.5001 596.2931,-189 586.2931,-185.5001 586.2932,-192.5001"/>
</g>
<!-- ListExpensesComponent -->
<g id="node15" class="node">
<title>ListExpensesComponent</title>
<polygon fill="#ffffb3" stroke="#000000" points="1840.9818,-122 1685.0182,-122 1685.0182,-86 1840.9818,-86 1840.9818,-122"/>
<text text-anchor="middle" x="1763" y="-99.8" font-family="Times,serif" font-size="14.00" fill="#000000">ListExpensesComponent</text>
</g>
<!-- ExpensesModule -->
<g id="node17" class="node">
<title>ExpensesModule</title>
<polygon fill="#8dd3c7" stroke="#000000" points="1647.4216,-198 1644.4216,-202 1623.4216,-202 1620.4216,-198 1534.5784,-198 1534.5784,-162 1647.4216,-162 1647.4216,-198"/>
<text text-anchor="middle" x="1591" y="-175.8" font-family="Times,serif" font-size="14.00" fill="#000000">ExpensesModule</text>
</g>
<!-- ListExpensesComponent&#45;&gt;ExpensesModule -->
<g id="edge14" class="edge">
<title>ListExpensesComponent&#45;&gt;ExpensesModule</title>
<path fill="none" stroke="#000000" d="M1763,-122.0109C1763,-144.4852 1763,-180 1763,-180 1763,-180 1657.3192,-180 1657.3192,-180"/>
<polygon fill="#000000" stroke="#000000" points="1657.3193,-176.5001 1647.3192,-180 1657.3192,-183.5001 1657.3193,-176.5001"/>
</g>
<!-- AddExpenseComponent -->
<g id="node16" class="node">
<title>AddExpenseComponent</title>
<polygon fill="#ffffb3" stroke="#000000" points="1667.3655,-122 1514.6345,-122 1514.6345,-86 1667.3655,-86 1667.3655,-122"/>
<text text-anchor="middle" x="1591" y="-99.8" font-family="Times,serif" font-size="14.00" fill="#000000">AddExpenseComponent</text>
</g>
<!-- AddExpenseComponent&#45;&gt;ExpensesModule -->
<g id="edge15" class="edge">
<title>AddExpenseComponent&#45;&gt;ExpensesModule</title>
<path fill="none" stroke="#000000" d="M1591,-122.0109C1591,-122.0109 1591,-151.855 1591,-151.855"/>
<polygon fill="#000000" stroke="#000000" points="1587.5001,-151.8549 1591,-161.855 1594.5001,-151.855 1587.5001,-151.8549"/>
</g>
<!-- ExpensesRoutingModule -->
<g id="node18" class="node">
<title>ExpensesRoutingModule</title>
<polygon fill="#8dd3c7" stroke="#000000" points="1490.5393,-122 1487.5393,-126 1466.5393,-126 1463.5393,-122 1333.4607,-122 1333.4607,-86 1490.5393,-86 1490.5393,-122"/>
<text text-anchor="middle" x="1412" y="-99.8" font-family="Times,serif" font-size="14.00" fill="#000000">ExpensesRoutingModule</text>
</g>
<!-- ExpensesRoutingModule&#45;&gt;ExpensesModule -->
<g id="edge16" class="edge">
<title>ExpensesRoutingModule&#45;&gt;ExpensesModule</title>
<path fill="none" stroke="#000000" d="M1412,-122.0109C1412,-144.4852 1412,-180 1412,-180 1412,-180 1524.3633,-180 1524.3633,-180"/>
<polygon fill="#000000" stroke="#000000" points="1524.3633,-183.5001 1534.3633,-180 1524.3632,-176.5001 1524.3633,-183.5001"/>
</g>
<!-- PersonService -->
<g id="node19" class="node">
<title>PersonService</title>
<ellipse fill="#fdb462" stroke="#000000" cx="1947" cy="-104" rx="66.0492" ry="18"/>
<text text-anchor="middle" x="1947" y="-99.8" font-family="Times,serif" font-size="14.00" fill="#000000">PersonService</text>
</g>
<!-- SharedModule -->
<g id="node20" class="node">
<title>SharedModule</title>
<polygon fill="#8dd3c7" stroke="#000000" points="1996.4231,-198 1993.4231,-202 1972.4231,-202 1969.4231,-198 1897.5769,-198 1897.5769,-162 1996.4231,-162 1996.4231,-198"/>
<text text-anchor="middle" x="1947" y="-175.8" font-family="Times,serif" font-size="14.00" fill="#000000">SharedModule</text>
</g>
<!-- PersonService&#45;&gt;SharedModule -->
<g id="edge17" class="edge">
<title>PersonService&#45;&gt;SharedModule</title>
<path fill="none" stroke="#000000" d="M1947,-122.0109C1947,-122.0109 1947,-151.855 1947,-151.855"/>
<polygon fill="#000000" stroke="#000000" points="1943.5001,-151.8549 1947,-161.855 1950.5001,-151.855 1943.5001,-151.8549"/>
</g>
</g>
</svg>
