<?xml version="1.0" encoding="UTF-8" standalone="no"?>
<!DOCTYPE svg PUBLIC "-//W3C//DTD SVG 1.1//EN"
 "http://www.w3.org/Graphics/SVG/1.1/DTD/svg11.dtd">
<!-- Generated by graphviz version 2.40.1 (20161225.0304)
 -->
<!-- Title: dependencies Pages: 1 -->
<svg width="1512pt" height="360pt"
 viewBox="0.00 0.00 1512.00 360.00" xmlns="http://www.w3.org/2000/svg" xmlns:xlink="http://www.w3.org/1999/xlink">
<g id="graph0" class="graph" transform="scale(1 1) rotate(0) translate(4 356)">
<title>dependencies</title>
<polygon fill="#ffffff" stroke="transparent" points="-4,4 -4,-356 1508,-356 1508,4 -4,4"/>
<text text-anchor="start" x="731.0091" y="-42.4" font-family="sans-serif" font-weight="bold" font-size="14.00" fill="#000000">Legend</text>
<polygon fill="#ffffb3" stroke="transparent" points="518,-10 518,-30 538,-30 538,-10 518,-10"/>
<text text-anchor="start" x="541.629" y="-15.4" font-family="sans-serif" font-size="14.00" fill="#000000"> &#160;Declarations</text>
<polygon fill="#8dd3c7" stroke="transparent" points="631,-10 631,-30 651,-30 651,-10 631,-10"/>
<text text-anchor="start" x="654.7251" y="-15.4" font-family="sans-serif" font-size="14.00" fill="#000000"> &#160;Module</text>
<polygon fill="#80b1d3" stroke="transparent" points="717,-10 717,-30 737,-30 737,-10 717,-10"/>
<text text-anchor="start" x="740.7812" y="-15.4" font-family="sans-serif" font-size="14.00" fill="#000000"> &#160;Bootstrap</text>
<polygon fill="#fdb462" stroke="transparent" points="814,-10 814,-30 834,-30 834,-10 814,-10"/>
<text text-anchor="start" x="837.6732" y="-15.4" font-family="sans-serif" font-size="14.00" fill="#000000"> &#160;Providers</text>
<polygon fill="#fb8072" stroke="transparent" points="910,-10 910,-30 930,-30 930,-10 910,-10"/>
<text text-anchor="start" x="933.7258" y="-15.4" font-family="sans-serif" font-size="14.00" fill="#000000"> &#160;Exports</text>
<g id="clust1" class="cluster">
<title>cluster_AppModule</title>
<polygon fill="none" stroke="#000000" stroke-dasharray="1,5" points="686,-146 686,-344 1381,-344 1381,-146 686,-146"/>
</g>
<g id="clust2" class="cluster">
<title>cluster_AppModule_declarations</title>
<polygon fill="none" stroke="#000000" points="1068,-154 1068,-206 1373,-206 1373,-154 1068,-154"/>
</g>
<g id="clust5" class="cluster">
<title>cluster_AppModule_imports</title>
<polygon fill="none" stroke="#000000" points="694,-154 694,-206 1060,-206 1060,-154 694,-154"/>
</g>
<g id="clust7" class="cluster">
<title>cluster_AppModule_bootstrap</title>
<polygon fill="none" stroke="#000000" points="926,-284 926,-336 1050,-336 1050,-284 926,-284"/>
</g>
<g id="clust15" class="cluster">
<title>cluster_CoreModule</title>
<polygon fill="none" stroke="#000000" stroke-dasharray="1,5" points="8,-70 8,-138 1310,-138 1310,-70 8,-70"/>
</g>
<g id="clust16" class="cluster">
<title>cluster_CoreModule_declarations</title>
<polygon fill="none" stroke="#000000" points="996,-78 996,-130 1302,-130 1302,-78 996,-78"/>
</g>
<g id="clust20" class="cluster">
<title>cluster_CoreModule_exports</title>
<polygon fill="none" stroke="#000000" points="674,-78 674,-130 988,-130 988,-78 674,-78"/>
</g>
<g id="clust22" class="cluster">
<title>cluster_CoreModule_providers</title>
<polygon fill="none" stroke="#000000" points="16,-78 16,-130 666,-130 666,-78 16,-78"/>
</g>
<g id="clust23" class="cluster">
<title>cluster_ExpensesModule</title>
<polygon fill="none" stroke="#000000" stroke-dasharray="1,5" points="138,-146 138,-271 678,-271 678,-146 138,-146"/>
</g>
<g id="clust24" class="cluster">
<title>cluster_ExpensesModule_declarations</title>
<polygon fill="none" stroke="#000000" points="328,-154 328,-206 670,-206 670,-154 328,-154"/>
</g>
<g id="clust27" class="cluster">
<title>cluster_ExpensesModule_imports</title>
<polygon fill="none" stroke="#000000" points="146,-154 146,-206 320,-206 320,-154 146,-154"/>
</g>
<g id="clust37" class="cluster">
<title>cluster_SharedModule</title>
<polygon fill="none" stroke="#000000" stroke-dasharray="1,5" points="1318,-70 1318,-138 1496,-138 1496,-70 1318,-70"/>
</g>
<g id="clust42" class="cluster">
<title>cluster_SharedModule_providers</title>
<polygon fill="none" stroke="#000000" points="1326,-78 1326,-130 1488,-130 1488,-78 1326,-78"/>
</g>
<!-- AppComponent -->
<g id="node1" class="node">
<title>AppComponent</title>
<polygon fill="#ffffb3" stroke="#000000" points="1364.9399,-198 1259.0601,-198 1259.0601,-162 1364.9399,-162 1364.9399,-198"/>
<text text-anchor="middle" x="1312" y="-175.8" font-family="Times,serif" font-size="14.00" fill="#000000">AppComponent</text>
</g>
<!-- AppModule -->
<g id="node3" class="node">
<title>AppModule</title>
<polygon fill="#8dd3c7" stroke="#000000" points="1029.6571,-263 1026.6571,-267 1005.6571,-267 1002.6571,-263 946.3429,-263 946.3429,-227 1029.6571,-227 1029.6571,-263"/>
<text text-anchor="middle" x="988" y="-240.8" font-family="Times,serif" font-size="14.00" fill="#000000">AppModule</text>
</g>
<!-- AppComponent&#45;&gt;AppModule -->
<g id="edge1" class="edge">
<title>AppComponent&#45;&gt;AppModule</title>
<path fill="none" stroke="#000000" d="M1312,-198.2843C1312,-219.3211 1312,-251 1312,-251 1312,-251 1039.694,-251 1039.694,-251"/>
<polygon fill="#000000" stroke="#000000" points="1039.6941,-247.5001 1029.694,-251 1039.694,-254.5001 1039.6941,-247.5001"/>
</g>
<!-- PageNotFoundComponent -->
<g id="node2" class="node">
<title>PageNotFoundComponent</title>
<polygon fill="#ffffb3" stroke="#000000" points="1241.8243,-198 1076.1757,-198 1076.1757,-162 1241.8243,-162 1241.8243,-198"/>
<text text-anchor="middle" x="1159" y="-175.8" font-family="Times,serif" font-size="14.00" fill="#000000">PageNotFoundComponent</text>
</g>
<!-- PageNotFoundComponent&#45;&gt;AppModule -->
<g id="edge2" class="edge">
<title>PageNotFoundComponent&#45;&gt;AppModule</title>
<path fill="none" stroke="#000000" d="M1159,-198.0225C1159,-215.3734 1159,-239 1159,-239 1159,-239 1039.8313,-239 1039.8313,-239"/>
<polygon fill="#000000" stroke="#000000" points="1039.8313,-235.5001 1029.8313,-239 1039.8313,-242.5001 1039.8313,-235.5001"/>
</g>
<!-- AppComponent  -->
<g id="node7" class="node">
<title>AppComponent </title>
<polygon fill="#80b1d3" stroke="#000000" points="1042.439,-328 933.561,-328 933.561,-292 1042.439,-292 1042.439,-328"/>
<text text-anchor="middle" x="988" y="-305.8" font-family="Times,serif" font-size="14.00" fill="#000000">AppComponent </text>
</g>
<!-- AppModule&#45;&gt;AppComponent  -->
<g id="edge6" class="edge">
<title>AppModule&#45;&gt;AppComponent </title>
<path fill="none" stroke="#000000" stroke-dasharray="1,5" d="M988,-263.1061C988,-263.1061 988,-281.991 988,-281.991"/>
<polygon fill="#000000" stroke="#000000" points="984.5001,-281.9909 988,-291.991 991.5001,-281.991 984.5001,-281.9909"/>
</g>
<!-- AppRoutingModule -->
<g id="node4" class="node">
<title>AppRoutingModule</title>
<polygon fill="#8dd3c7" stroke="#000000" points="1052.2744,-198 1049.2744,-202 1028.2744,-202 1025.2744,-198 923.7256,-198 923.7256,-162 1052.2744,-162 1052.2744,-198"/>
<text text-anchor="middle" x="988" y="-175.8" font-family="Times,serif" font-size="14.00" fill="#000000">AppRoutingModule</text>
</g>
<!-- AppRoutingModule&#45;&gt;AppModule -->
<g id="edge3" class="edge">
<title>AppRoutingModule&#45;&gt;AppModule</title>
<path fill="none" stroke="#000000" d="M988,-198.1061C988,-198.1061 988,-216.991 988,-216.991"/>
<polygon fill="#000000" stroke="#000000" points="984.5001,-216.9909 988,-226.991 991.5001,-216.991 984.5001,-216.9909"/>
</g>
<!-- CoreModule -->
<g id="node5" class="node">
<title>CoreModule</title>
<polygon fill="#8dd3c7" stroke="#000000" points="788.2619,-198 785.2619,-202 764.2619,-202 761.2619,-198 701.7381,-198 701.7381,-162 788.2619,-162 788.2619,-198"/>
<text text-anchor="middle" x="745" y="-175.8" font-family="Times,serif" font-size="14.00" fill="#000000">CoreModule</text>
</g>
<!-- CoreModule&#45;&gt;AppModule -->
<g id="edge4" class="edge">
<title>CoreModule&#45;&gt;AppModule</title>
<path fill="none" stroke="#000000" d="M745,-198.2921C745,-220.2057 745,-254 745,-254 745,-254 936.2268,-254 936.2268,-254"/>
<polygon fill="#000000" stroke="#000000" points="936.2268,-257.5001 946.2268,-254 936.2268,-250.5001 936.2268,-257.5001"/>
</g>
<!-- BreadcrumbComponent  -->
<g id="node10" class="node">
<title>BreadcrumbComponent </title>
<polygon fill="#fb8072" stroke="#000000" points="980.0246,-122 825.9754,-122 825.9754,-86 980.0246,-86 980.0246,-122"/>
<text text-anchor="middle" x="903" y="-99.8" font-family="Times,serif" font-size="14.00" fill="#000000">BreadcrumbComponent </text>
</g>
<!-- CoreModule&#45;&gt;BreadcrumbComponent  -->
<g id="edge9" class="edge">
<title>CoreModule&#45;&gt;BreadcrumbComponent </title>
<path fill="none" stroke="#000000" stroke-dasharray="5,2" d="M777.5356,-161.8903C777.5356,-152.103 777.5356,-142 777.5356,-142 777.5356,-142 852.3955,-142 852.3955,-142 852.3955,-142 852.3955,-132.1097 852.3955,-132.1097"/>
<polygon fill="#000000" stroke="#000000" points="855.8956,-132.1096 852.3955,-122.1097 848.8956,-132.1097 855.8956,-132.1096"/>
</g>
<!-- HeaderComponent  -->
<g id="node11" class="node">
<title>HeaderComponent </title>
<polygon fill="#fb8072" stroke="#000000" points="807.7436,-122 682.2564,-122 682.2564,-86 807.7436,-86 807.7436,-122"/>
<text text-anchor="middle" x="745" y="-99.8" font-family="Times,serif" font-size="14.00" fill="#000000">HeaderComponent </text>
</g>
<!-- CoreModule&#45;&gt;HeaderComponent  -->
<g id="edge10" class="edge">
<title>CoreModule&#45;&gt;HeaderComponent </title>
<path fill="none" stroke="#000000" stroke-dasharray="5,2" d="M745,-161.9891C745,-161.9891 745,-132.145 745,-132.145"/>
<polygon fill="#000000" stroke="#000000" points="748.5001,-132.145 745,-122.145 741.5001,-132.1451 748.5001,-132.145"/>
</g>
<!-- SharedModule -->
<g id="node6" class="node">
<title>SharedModule</title>
<polygon fill="#8dd3c7" stroke="#000000" points="905.4231,-198 902.4231,-202 881.4231,-202 878.4231,-198 806.5769,-198 806.5769,-162 905.4231,-162 905.4231,-198"/>
<text text-anchor="middle" x="856" y="-175.8" font-family="Times,serif" font-size="14.00" fill="#000000">SharedModule</text>
</g>
<!-- SharedModule&#45;&gt;AppModule -->
<g id="edge5" class="edge">
<title>SharedModule&#45;&gt;AppModule</title>
<path fill="none" stroke="#000000" d="M872.4037,-198.1061C872.4037,-217.3391 872.4037,-245 872.4037,-245 872.4037,-245 936.2671,-245 936.2671,-245"/>
<polygon fill="#000000" stroke="#000000" points="936.2671,-248.5001 946.2671,-245 936.267,-241.5001 936.2671,-248.5001"/>
</g>
<!-- ExpensesModule -->
<g id="node18" class="node">
<title>ExpensesModule</title>
<polygon fill="#8dd3c7" stroke="#000000" points="554.4216,-263 551.4216,-267 530.4216,-267 527.4216,-263 441.5784,-263 441.5784,-227 554.4216,-227 554.4216,-263"/>
<text text-anchor="middle" x="498" y="-240.8" font-family="Times,serif" font-size="14.00" fill="#000000">ExpensesModule</text>
</g>
<!-- SharedModule&#45;&gt;ExpensesModule -->
<g id="edge18" class="edge">
<title>SharedModule&#45;&gt;ExpensesModule</title>
<path fill="none" stroke="#000000" d="M839.5963,-198.027C839.5963,-214.3976 839.5963,-236 839.5963,-236 839.5963,-236 564.4077,-236 564.4077,-236"/>
<polygon fill="#000000" stroke="#000000" points="564.4077,-232.5001 554.4077,-236 564.4076,-239.5001 564.4077,-232.5001"/>
</g>
<!-- BreadcrumbComponent -->
<g id="node8" class="node">
<title>BreadcrumbComponent</title>
<polygon fill="#ffffb3" stroke="#000000" points="1294.0253,-122 1143.9747,-122 1143.9747,-86 1294.0253,-86 1294.0253,-122"/>
<text text-anchor="middle" x="1219" y="-99.8" font-family="Times,serif" font-size="14.00" fill="#000000">BreadcrumbComponent</text>
</g>
<!-- BreadcrumbComponent&#45;&gt;CoreModule -->
<g id="edge7" class="edge">
<title>BreadcrumbComponent&#45;&gt;CoreModule</title>
<path fill="none" stroke="#000000" d="M1192.6999,-122.1467C1192.6999,-135.7395 1192.6999,-152 1192.6999,-152 1192.6999,-152 766.6904,-152 766.6904,-152 766.6904,-152 766.6904,-152.9793 766.6904,-152.9793"/>
<polygon fill="#000000" stroke="#000000" points="763.1905,-151.793 766.6904,-161.793 770.1905,-151.7931 763.1905,-151.793"/>
</g>
<!-- HeaderComponent -->
<g id="node9" class="node">
<title>HeaderComponent</title>
<polygon fill="#ffffb3" stroke="#000000" points="1125.7437,-122 1004.2563,-122 1004.2563,-86 1125.7437,-86 1125.7437,-122"/>
<text text-anchor="middle" x="1065" y="-99.8" font-family="Times,serif" font-size="14.00" fill="#000000">HeaderComponent</text>
</g>
<!-- HeaderComponent&#45;&gt;CoreModule -->
<g id="edge8" class="edge">
<title>HeaderComponent&#45;&gt;CoreModule</title>
<path fill="none" stroke="#000000" d="M1028.2577,-122.4854C1028.2577,-134.1399 1028.2577,-147 1028.2577,-147 1028.2577,-147 755.8452,-147 755.8452,-147 755.8452,-147 755.8452,-151.9551 755.8452,-151.9551"/>
<polygon fill="#000000" stroke="#000000" points="752.3453,-151.9551 755.8452,-161.9551 759.3453,-151.9552 752.3453,-151.9551"/>
</g>
<!-- SelectivePreloadingStrategy -->
<g id="node12" class="node">
<title>SelectivePreloadingStrategy</title>
<ellipse fill="#fdb462" stroke="#000000" cx="274" cy="-104" rx="120.3994" ry="18"/>
<text text-anchor="middle" x="274" y="-99.8" font-family="Times,serif" font-size="14.00" fill="#000000">SelectivePreloadingStrategy</text>
</g>
<!-- SelectivePreloadingStrategy&#45;&gt;CoreModule -->
<g id="edge11" class="edge">
<title>SelectivePreloadingStrategy&#45;&gt;CoreModule</title>
<path fill="none" stroke="#000000" d="M365.0085,-116.037C365.0085,-123.626 365.0085,-132 365.0085,-132 365.0085,-132 723.3096,-132 723.3096,-132 723.3096,-132 723.3096,-151.8533 723.3096,-151.8533"/>
<polygon fill="#000000" stroke="#000000" points="719.8097,-151.8532 723.3096,-161.8533 726.8097,-151.8533 719.8097,-151.8532"/>
</g>
<!-- LogService -->
<g id="node13" class="node">
<title>LogService</title>
<ellipse fill="#fdb462" stroke="#000000" cx="80" cy="-104" rx="55.5966" ry="18"/>
<text text-anchor="middle" x="80" y="-99.8" font-family="Times,serif" font-size="14.00" fill="#000000">LogService</text>
</g>
<!-- LogService&#45;&gt;CoreModule -->
<g id="edge12" class="edge">
<title>LogService&#45;&gt;CoreModule</title>
<path fill="none" stroke="#000000" d="M80,-122.0449C80,-129.749 80,-137 80,-137 80,-137 712.4644,-137 712.4644,-137 712.4644,-137 712.4644,-151.5146 712.4644,-151.5146"/>
<polygon fill="#000000" stroke="#000000" points="708.9645,-151.5145 712.4644,-161.5146 715.9645,-151.5146 708.9645,-151.5145"/>
</g>
<!-- AuthGuard -->
<g id="node14" class="node">
<title>AuthGuard</title>
<ellipse fill="#fdb462" stroke="#000000" cx="604" cy="-104" rx="54.4566" ry="18"/>
<text text-anchor="middle" x="604" y="-99.8" font-family="Times,serif" font-size="14.00" fill="#000000">AuthGuard</text>
</g>
<!-- AuthGuard&#45;&gt;CoreModule -->
<g id="edge13" class="edge">
<title>AuthGuard&#45;&gt;CoreModule</title>
<path fill="none" stroke="#000000" d="M658.7135,-104C666.6402,-104 672.1846,-104 672.1846,-104 672.1846,-104 672.1846,-180 672.1846,-180 672.1846,-180 691.3818,-180 691.3818,-180"/>
<polygon fill="#000000" stroke="#000000" points="691.3819,-183.5001 701.3818,-180 691.3818,-176.5001 691.3819,-183.5001"/>
</g>
<!-- AuthService -->
<g id="node15" class="node">
<title>AuthService</title>
<ellipse fill="#fdb462" stroke="#000000" cx="472" cy="-104" rx="59.1083" ry="18"/>
<text text-anchor="middle" x="472" y="-99.8" font-family="Times,serif" font-size="14.00" fill="#000000">AuthService</text>
</g>
<!-- AuthService&#45;&gt;CoreModule -->
<g id="edge14" class="edge">
<title>AuthService&#45;&gt;CoreModule</title>
<path fill="none" stroke="#000000" d="M518.6565,-115.2305C518.6565,-121.0689 518.6565,-127 518.6565,-127 518.6565,-127 734.1548,-127 734.1548,-127 734.1548,-127 734.1548,-151.7604 734.1548,-151.7604"/>
<polygon fill="#000000" stroke="#000000" points="730.6549,-151.7604 734.1548,-161.7604 737.6549,-151.7604 730.6549,-151.7604"/>
</g>
<!-- ListExpensesComponent -->
<g id="node16" class="node">
<title>ListExpensesComponent</title>
<polygon fill="#ffffb3" stroke="#000000" points="661.9818,-198 506.0182,-198 506.0182,-162 661.9818,-162 661.9818,-198"/>
<text text-anchor="middle" x="584" y="-175.8" font-family="Times,serif" font-size="14.00" fill="#000000">ListExpensesComponent</text>
</g>
<!-- ListExpensesComponent&#45;&gt;ExpensesModule -->
<g id="edge15" class="edge">
<title>ListExpensesComponent&#45;&gt;ExpensesModule</title>
<path fill="none" stroke="#000000" d="M530.1098,-198.1061C530.1098,-198.1061 530.1098,-216.991 530.1098,-216.991"/>
<polygon fill="#000000" stroke="#000000" points="526.6098,-216.9909 530.1098,-226.991 533.6098,-216.991 526.6098,-216.9909"/>
</g>
<!-- AddExpenseComponent -->
<g id="node17" class="node">
<title>AddExpenseComponent</title>
<polygon fill="#ffffb3" stroke="#000000" points="488.3655,-198 335.6345,-198 335.6345,-162 488.3655,-162 488.3655,-198"/>
<text text-anchor="middle" x="412" y="-175.8" font-family="Times,serif" font-size="14.00" fill="#000000">AddExpenseComponent</text>
</g>
<!-- AddExpenseComponent&#45;&gt;ExpensesModule -->
<g id="edge16" class="edge">
<title>AddExpenseComponent&#45;&gt;ExpensesModule</title>
<path fill="none" stroke="#000000" d="M465.1112,-198.1061C465.1112,-198.1061 465.1112,-216.991 465.1112,-216.991"/>
<polygon fill="#000000" stroke="#000000" points="461.6112,-216.9909 465.1112,-226.991 468.6112,-216.991 461.6112,-216.9909"/>
</g>
<!-- ExpensesRoutingModule -->
<g id="node19" class="node">
<title>ExpensesRoutingModule</title>
<polygon fill="#8dd3c7" stroke="#000000" points="311.5393,-198 308.5393,-202 287.5393,-202 284.5393,-198 154.4607,-198 154.4607,-162 311.5393,-162 311.5393,-198"/>
<text text-anchor="middle" x="233" y="-175.8" font-family="Times,serif" font-size="14.00" fill="#000000">ExpensesRoutingModule</text>
</g>
<!-- ExpensesRoutingModule&#45;&gt;ExpensesModule -->
<g id="edge17" class="edge">
<title>ExpensesRoutingModule&#45;&gt;ExpensesModule</title>
<path fill="none" stroke="#000000" d="M233,-198.1061C233,-217.3391 233,-245 233,-245 233,-245 431.4759,-245 431.4759,-245"/>
<polygon fill="#000000" stroke="#000000" points="431.4759,-248.5001 441.4759,-245 431.4759,-241.5001 431.4759,-248.5001"/>
</g>
<!-- ExpenseService -->
<g id="node20" class="node">
<title>ExpenseService</title>
<ellipse fill="#fdb462" stroke="#000000" cx="1407" cy="-104" rx="72.9121" ry="18"/>
<text text-anchor="middle" x="1407" y="-99.8" font-family="Times,serif" font-size="14.00" fill="#000000">ExpenseService</text>
</g>
<!-- ExpenseService&#45;&gt;SharedModule -->
<g id="edge19" class="edge">
<title>ExpenseService&#45;&gt;SharedModule</title>
<path fill="none" stroke="#000000" d="M1349.5069,-115.2399C1349.5069,-130.7976 1349.5069,-157 1349.5069,-157 1349.5069,-157 878.8033,-157 878.8033,-157 878.8033,-157 878.8033,-157.4878 878.8033,-157.4878"/>
<polygon fill="#000000" stroke="#000000" points="875.3035,-151.8776 878.8033,-161.8777 882.3035,-151.8778 875.3035,-151.8776"/>
</g>
</g>
</svg>
