<?xml version="1.0" encoding="UTF-8" standalone="no"?>
<!DOCTYPE svg PUBLIC "-//W3C//DTD SVG 1.1//EN"
 "http://www.w3.org/Graphics/SVG/1.1/DTD/svg11.dtd">
<!-- Generated by graphviz version 2.40.1 (20161225.0304)
 -->
<!-- Title: dependencies Pages: 1 -->
<svg width="1003pt" height="284pt"
 viewBox="0.00 0.00 1003.00 284.00" xmlns="http://www.w3.org/2000/svg" xmlns:xlink="http://www.w3.org/1999/xlink">
<g id="graph0" class="graph" transform="scale(1 1) rotate(0) translate(4 280)">
<title>dependencies</title>
<polygon fill="#ffffff" stroke="transparent" points="-4,4 -4,-280 999,-280 999,4 -4,4"/>
<text text-anchor="start" x="476.5091" y="-42.4" font-family="sans-serif" font-weight="bold" font-size="14.00" fill="#000000">Legend</text>
<polygon fill="#ffffb3" stroke="transparent" points="263.5,-10 263.5,-30 283.5,-30 283.5,-10 263.5,-10"/>
<text text-anchor="start" x="287.129" y="-15.4" font-family="sans-serif" font-size="14.00" fill="#000000"> &#160;Declarations</text>
<polygon fill="#8dd3c7" stroke="transparent" points="376.5,-10 376.5,-30 396.5,-30 396.5,-10 376.5,-10"/>
<text text-anchor="start" x="400.2251" y="-15.4" font-family="sans-serif" font-size="14.00" fill="#000000"> &#160;Module</text>
<polygon fill="#80b1d3" stroke="transparent" points="462.5,-10 462.5,-30 482.5,-30 482.5,-10 462.5,-10"/>
<text text-anchor="start" x="486.2812" y="-15.4" font-family="sans-serif" font-size="14.00" fill="#000000"> &#160;Bootstrap</text>
<polygon fill="#fdb462" stroke="transparent" points="559.5,-10 559.5,-30 579.5,-30 579.5,-10 559.5,-10"/>
<text text-anchor="start" x="583.1732" y="-15.4" font-family="sans-serif" font-size="14.00" fill="#000000"> &#160;Providers</text>
<polygon fill="#fb8072" stroke="transparent" points="655.5,-10 655.5,-30 675.5,-30 675.5,-10 655.5,-10"/>
<text text-anchor="start" x="679.2258" y="-15.4" font-family="sans-serif" font-size="14.00" fill="#000000"> &#160;Exports</text>
<g id="clust1" class="cluster">
<title>cluster_CoreModule</title>
<polygon fill="none" stroke="#000000" stroke-dasharray="1,5" points="8,-70 8,-268 987,-268 987,-70 8,-70"/>
</g>
<g id="clust2" class="cluster">
<title>cluster_CoreModule_declarations</title>
<polygon fill="none" stroke="#000000" points="673,-78 673,-130 979,-130 979,-78 673,-78"/>
</g>
<g id="clust6" class="cluster">
<title>cluster_CoreModule_exports</title>
<polygon fill="none" stroke="#000000" points="290,-208 290,-260 604,-260 604,-208 290,-208"/>
</g>
<g id="clust8" class="cluster">
<title>cluster_CoreModule_providers</title>
<polygon fill="none" stroke="#000000" points="16,-78 16,-130 665,-130 665,-78 16,-78"/>
</g>
<!-- BreadcrumbComponent -->
<g id="node1" class="node">
<title>BreadcrumbComponent</title>
<polygon fill="#ffffb3" stroke="#000000" points="971.0253,-122 820.9747,-122 820.9747,-86 971.0253,-86 971.0253,-122"/>
<text text-anchor="middle" x="896" y="-99.8" font-family="Times,serif" font-size="14.00" fill="#000000">BreadcrumbComponent</text>
</g>
<!-- CoreModule -->
<g id="node3" class="node">
<title>CoreModule</title>
<polygon fill="#8dd3c7" stroke="#000000" points="483.2619,-187 480.2619,-191 459.2619,-191 456.2619,-187 396.7381,-187 396.7381,-151 483.2619,-151 483.2619,-187"/>
<text text-anchor="middle" x="440" y="-164.8" font-family="Times,serif" font-size="14.00" fill="#000000">CoreModule</text>
</g>
<!-- BreadcrumbComponent&#45;&gt;CoreModule -->
<g id="edge1" class="edge">
<title>BreadcrumbComponent&#45;&gt;CoreModule</title>
<path fill="none" stroke="#000000" d="M896,-122.2843C896,-143.3211 896,-175 896,-175 896,-175 493.3105,-175 493.3105,-175"/>
<polygon fill="#000000" stroke="#000000" points="493.3105,-171.5001 483.3105,-175 493.3104,-178.5001 493.3105,-171.5001"/>
</g>
<!-- HeaderComponent -->
<g id="node2" class="node">
<title>HeaderComponent</title>
<polygon fill="#ffffb3" stroke="#000000" points="802.7437,-122 681.2563,-122 681.2563,-86 802.7437,-86 802.7437,-122"/>
<text text-anchor="middle" x="742" y="-99.8" font-family="Times,serif" font-size="14.00" fill="#000000">HeaderComponent</text>
</g>
<!-- HeaderComponent&#45;&gt;CoreModule -->
<g id="edge2" class="edge">
<title>HeaderComponent&#45;&gt;CoreModule</title>
<path fill="none" stroke="#000000" d="M742,-122.0225C742,-139.3734 742,-163 742,-163 742,-163 493.2692,-163 493.2692,-163"/>
<polygon fill="#000000" stroke="#000000" points="493.2693,-159.5001 483.2692,-163 493.2692,-166.5001 493.2693,-159.5001"/>
</g>
<!-- BreadcrumbComponent  -->
<g id="node4" class="node">
<title>BreadcrumbComponent </title>
<polygon fill="#fb8072" stroke="#000000" points="596.0246,-252 441.9754,-252 441.9754,-216 596.0246,-216 596.0246,-252"/>
<text text-anchor="middle" x="519" y="-229.8" font-family="Times,serif" font-size="14.00" fill="#000000">BreadcrumbComponent </text>
</g>
<!-- CoreModule&#45;&gt;BreadcrumbComponent  -->
<g id="edge3" class="edge">
<title>CoreModule&#45;&gt;BreadcrumbComponent </title>
<path fill="none" stroke="#000000" stroke-dasharray="5,2" d="M462.6843,-187.1061C462.6843,-187.1061 462.6843,-205.991 462.6843,-205.991"/>
<polygon fill="#000000" stroke="#000000" points="459.1843,-205.9909 462.6843,-215.991 466.1843,-205.991 459.1843,-205.9909"/>
</g>
<!-- HeaderComponent  -->
<g id="node5" class="node">
<title>HeaderComponent </title>
<polygon fill="#fb8072" stroke="#000000" points="423.7436,-252 298.2564,-252 298.2564,-216 423.7436,-216 423.7436,-252"/>
<text text-anchor="middle" x="361" y="-229.8" font-family="Times,serif" font-size="14.00" fill="#000000">HeaderComponent </text>
</g>
<!-- CoreModule&#45;&gt;HeaderComponent  -->
<g id="edge4" class="edge">
<title>CoreModule&#45;&gt;HeaderComponent </title>
<path fill="none" stroke="#000000" stroke-dasharray="5,2" d="M410.1205,-187.1061C410.1205,-187.1061 410.1205,-205.991 410.1205,-205.991"/>
<polygon fill="#000000" stroke="#000000" points="406.6205,-205.9909 410.1205,-215.991 413.6205,-205.991 406.6205,-205.9909"/>
</g>
<!-- SelectivePreloadingStrategy -->
<g id="node6" class="node">
<title>SelectivePreloadingStrategy</title>
<ellipse fill="#fdb462" stroke="#000000" cx="537" cy="-104" rx="120.3994" ry="18"/>
<text text-anchor="middle" x="537" y="-99.8" font-family="Times,serif" font-size="14.00" fill="#000000">SelectivePreloadingStrategy</text>
</g>
<!-- SelectivePreloadingStrategy&#45;&gt;CoreModule -->
<g id="edge5" class="edge">
<title>SelectivePreloadingStrategy&#45;&gt;CoreModule</title>
<path fill="none" stroke="#000000" d="M449.9656,-116.5327C449.9656,-116.5327 449.9656,-140.8507 449.9656,-140.8507"/>
<polygon fill="#000000" stroke="#000000" points="446.4657,-140.8506 449.9656,-150.8507 453.4657,-140.8507 446.4657,-140.8506"/>
</g>
<!-- LogService -->
<g id="node7" class="node">
<title>LogService</title>
<ellipse fill="#fdb462" stroke="#000000" cx="343" cy="-104" rx="55.5966" ry="18"/>
<text text-anchor="middle" x="343" y="-99.8" font-family="Times,serif" font-size="14.00" fill="#000000">LogService</text>
</g>
<!-- LogService&#45;&gt;CoreModule -->
<g id="edge6" class="edge">
<title>LogService&#45;&gt;CoreModule</title>
<path fill="none" stroke="#000000" d="M398.574,-104C404.0035,-104 407.5493,-104 407.5493,-104 407.5493,-104 407.5493,-140.8939 407.5493,-140.8939"/>
<polygon fill="#000000" stroke="#000000" points="404.0494,-140.8938 407.5493,-150.8939 411.0494,-140.8939 404.0494,-140.8938"/>
</g>
<!-- AuthGuard -->
<g id="node8" class="node">
<title>AuthGuard</title>
<ellipse fill="#fdb462" stroke="#000000" cx="215" cy="-104" rx="54.4566" ry="18"/>
<text text-anchor="middle" x="215" y="-99.8" font-family="Times,serif" font-size="14.00" fill="#000000">AuthGuard</text>
</g>
<!-- AuthGuard&#45;&gt;CoreModule -->
<g id="edge7" class="edge">
<title>AuthGuard&#45;&gt;CoreModule</title>
<path fill="none" stroke="#000000" d="M215,-122.0225C215,-139.3734 215,-163 215,-163 215,-163 386.6177,-163 386.6177,-163"/>
<polygon fill="#000000" stroke="#000000" points="386.6178,-166.5001 396.6177,-163 386.6177,-159.5001 386.6178,-166.5001"/>
</g>
<!-- AuthService -->
<g id="node9" class="node">
<title>AuthService</title>
<ellipse fill="#fdb462" stroke="#000000" cx="83" cy="-104" rx="59.1083" ry="18"/>
<text text-anchor="middle" x="83" y="-99.8" font-family="Times,serif" font-size="14.00" fill="#000000">AuthService</text>
</g>
<!-- AuthService&#45;&gt;CoreModule -->
<g id="edge8" class="edge">
<title>AuthService&#45;&gt;CoreModule</title>
<path fill="none" stroke="#000000" d="M83,-122.2843C83,-143.3211 83,-175 83,-175 83,-175 386.5817,-175 386.5817,-175"/>
<polygon fill="#000000" stroke="#000000" points="386.5817,-178.5001 396.5817,-175 386.5817,-171.5001 386.5817,-178.5001"/>
</g>
</g>
</svg>
